<svg width="100" height="100" viewBox="0 0 100 100" fill="none" xmlns="http://www.w3.org/2000/svg">
<g clip-path="url(#clip0)">
<path d="M99.9902 80.577C99.8508 76.7088 98.2394 73.099 95.4533 70.4125C89.998 65.1521 85.4273 62.1154 81.0691 60.8561C75.0642 59.1205 69.5017 60.6986 64.5377 65.5467C64.5303 65.5539 64.5228 65.5613 64.5154 65.5687L59.2341 70.8105C55.9336 68.95 49.5156 64.8648 42.5816 57.9309L42.0675 57.4172C35.1324 50.4822 31.0474 44.0631 29.1886 40.7662L34.4308 35.4848C34.4382 35.4773 34.4457 35.4699 34.4531 35.4623C39.3009 30.4986 40.8791 24.9365 39.1437 18.9309C37.8841 14.5729 34.8476 10.0021 29.5871 4.54687C26.9007 1.76113 23.2912 0.149804 19.423 0.0103508C15.5525 -0.129298 11.8384 1.21797 8.95797 3.80351L8.84586 3.9043C8.79391 3.95098 8.74312 3.99922 8.69351 4.04863C2.95933 9.78281 -0.0465259 17.8103 0.000544449 27.2637C0.0808179 43.3227 8.9068 61.6875 23.6097 76.3902C26.3822 79.1627 29.5332 81.9064 32.975 84.5455C34.6869 85.858 37.1388 85.5346 38.4515 83.8225C39.7644 82.1104 39.4406 79.6584 37.7285 78.3457C34.5576 75.9143 31.666 73.3978 29.1339 70.8664C15.8535 57.5859 7.88297 41.2715 7.81285 27.2248C7.77672 19.9443 9.96676 13.8676 14.147 9.64375L14.1769 9.6168C17.0162 7.06816 21.3148 7.22324 23.9636 9.96992C34.0767 20.4578 33.3445 25.4092 28.8757 29.9916L21.6347 37.2869C20.4992 38.431 20.183 40.1553 20.8386 41.6279C21.0224 42.0408 25.4695 51.8676 36.5447 62.9428L37.059 63.4562C48.1328 74.5303 57.9597 78.9771 58.3726 79.1609C59.8449 79.817 61.5695 79.5006 62.7134 78.365L70.009 71.1238C74.592 66.6549 79.5433 65.923 90.0306 76.0361C92.7773 78.6846 92.9324 82.9834 90.3844 85.8223L90.3566 85.8529C86.1674 89.9992 80.1553 92.1875 72.9541 92.1875C72.8947 92.1875 72.8353 92.1875 72.7758 92.1871C67.0197 92.1584 60.3543 90.5805 53.5006 87.6242C51.5201 86.7695 49.2211 87.6828 48.3668 89.6639C47.5123 91.6449 48.4254 93.9434 50.4064 94.7979C58.3287 98.215 65.8416 99.965 72.7369 99.9996C72.8101 99.9998 72.8828 100 72.956 100C82.3142 100 90.2621 96.9963 95.9519 91.3066C96.0013 91.257 96.0494 91.2064 96.0961 91.1543L96.1974 91.0416C98.7828 88.1613 100.13 84.4449 99.9902 80.577Z" fill="#FFB130"/>
</g>
<defs>
<clipPath id="clip0">
<rect width="100" height="100" fill="white"/>
</clipPath>
</defs>
</svg>
