<svg width="40" height="40" viewBox="0 0 40 40" fill="none" xmlns="http://www.w3.org/2000/svg">
<path d="M38.4375 27.5C39.3005 27.5 40 26.8005 40 25.9375V6.25C40 2.80365 37.1964 0 33.75 0H6.25C2.80365 0 0 2.80365 0 6.25V33.75C0 37.1964 2.80365 40 6.25 40H33.75C37.1964 40 40 37.1964 40 33.75C40 32.887 39.3005 32.1875 38.4375 32.1875C37.5745 32.1875 36.875 32.887 36.875 33.75C36.875 35.473 35.473 36.875 33.75 36.875H26.0938V25.4688H29.7101C30.5008 25.4688 31.167 24.8779 31.2616 24.093L31.4685 22.3743C31.5802 21.4441 30.8542 20.625 29.917 20.625H26.0938V15.3906C26.0938 14.0961 27.1429 13.0469 28.4375 13.0469H30.3906C31.2537 13.0469 31.9531 12.3474 31.9531 11.4844V9.90387C31.9531 9.10339 31.3486 8.43079 30.5521 8.34961C29.7598 8.26904 28.9215 8.20312 28.4375 8.20312C26.6153 8.20312 24.7888 8.97186 23.4265 10.3119C22.023 11.6925 21.25 13.501 21.25 15.4044V20.625H17.7344C16.8713 20.625 16.1719 21.3245 16.1719 22.1875V23.9062C16.1719 24.7693 16.8713 25.4688 17.7344 25.4688H21.25V36.875H6.25C4.52698 36.875 3.125 35.473 3.125 33.75V6.25C3.125 4.52698 4.52698 3.125 6.25 3.125H33.75C35.473 3.125 36.875 4.52698 36.875 6.25V25.9375C36.875 26.8005 37.5745 27.5 38.4375 27.5Z" fill="#FFB130"/>
</svg>
