<svg width="40" height="40" viewBox="0 0 40 40" fill="none" xmlns="http://www.w3.org/2000/svg">
<g clip-path="url(#clip0)">
<path d="M20.3937 39.9999C20.2612 39.9999 20.1288 39.9999 19.9954 39.9993C16.86 40.007 13.963 39.9273 11.1456 39.7558C8.56262 39.5986 6.20483 38.706 4.32678 37.1746C2.51465 35.697 1.27716 33.699 0.648804 31.2368C0.101929 29.0933 0.072937 26.9891 0.045166 24.9538C0.0250244 23.4936 0.00427246 21.7632 0 20.0036C0.00427246 18.2366 0.0250244 16.5063 0.045166 15.046C0.072937 13.0111 0.101929 10.9069 0.648804 8.76302C1.27716 6.30086 2.51465 4.30287 4.32678 2.82521C6.20483 1.29383 8.56262 0.401195 11.1459 0.244029C13.9633 0.0728249 16.861 -0.00713127 20.0031 0.000498135C23.1393 -0.00621574 26.0355 0.0728249 28.8528 0.244029C31.4359 0.401195 33.7936 1.29383 35.6717 2.82521C37.4841 4.30287 38.7213 6.30086 39.3497 8.76302C39.8965 10.9066 39.9255 13.0111 39.9533 15.046C39.9734 16.5063 39.9945 18.2366 39.9985 19.9963C39.9945 21.7632 39.9734 23.4936 39.9533 24.9538C39.9417 25.8169 39.2288 26.5066 38.3698 26.495C37.5067 26.4831 36.817 25.7739 36.8286 24.9111C36.8484 23.4594 36.8695 21.7403 36.8735 19.9963C36.8695 18.2595 36.8484 16.5404 36.8286 15.0887C36.8033 13.236 36.777 11.3201 36.3217 9.53573C35.8624 7.7358 34.9792 6.29293 33.6969 5.24709C32.3099 4.1158 30.6161 3.48195 28.663 3.36323C25.9119 3.196 23.0798 3.11879 20.0031 3.1252C16.9189 3.11787 14.0866 3.196 11.3354 3.36323C9.38232 3.48195 7.6889 4.1158 6.30157 5.24678C5.01923 6.29262 4.13605 7.73549 3.67676 9.53573C3.22144 11.3201 3.19519 13.236 3.16986 15.0887C3.15002 16.5404 3.12927 18.2595 3.125 20.0036C3.12927 21.7403 3.15002 23.4594 3.16986 24.9111C3.19519 26.7638 3.22144 28.6797 3.67676 30.4641C4.13605 32.264 5.01923 33.7069 6.30157 34.7527C7.6889 35.884 9.38232 36.5179 11.3354 36.6366C14.0866 36.8038 16.9196 36.882 19.9957 36.8743C23.0801 36.8817 25.9119 36.8038 28.663 36.6366C30.6161 36.5179 32.3096 35.884 33.6969 34.7527C34.6207 33.9993 35.3424 33.0325 35.842 31.8789C36.185 31.0873 37.1048 30.7232 37.8967 31.0662C38.6887 31.4092 39.0524 32.329 38.7097 33.121C38.0093 34.7381 36.9873 36.1019 35.6717 37.1746C33.7936 38.7063 31.4359 39.5986 28.8528 39.7558C26.1548 39.92 23.3832 39.9999 20.3937 39.9999ZM29.6866 19.9999C29.6866 14.6151 25.3058 10.2343 19.921 10.2343C14.5364 10.2343 10.1553 14.6151 10.1553 19.9999C10.1553 25.3848 14.5364 29.7656 19.921 29.7656C25.3058 29.7656 29.6866 25.3848 29.6866 19.9999ZM26.5616 19.9999C26.5616 23.6614 23.5828 26.6406 19.921 26.6406C16.2595 26.6406 13.2803 23.6614 13.2803 19.9999C13.2803 16.3384 16.2595 13.3593 19.921 13.3593C23.5828 13.3593 26.5616 16.3384 26.5616 19.9999ZM30.7803 7.10927C29.4861 7.10927 28.4366 8.15847 28.4366 9.45303C28.4366 10.7476 29.4861 11.7968 30.7803 11.7968C32.0749 11.7968 33.1241 10.7476 33.1241 9.45303C33.1241 8.15847 32.0749 7.10927 30.7803 7.10927Z" fill="#FFB130"/>
</g>
<defs>
<clipPath id="clip0">
<rect width="40" height="40" fill="white"/>
</clipPath>
</defs>
</svg>
