<svg width="130" height="46" viewBox="0 0 130 46" fill="none" xmlns="http://www.w3.org/2000/svg">
<g clip-path="url(#clip0)">
<path d="M47.4218 39.8054H48.7673V45.7827H47.4218V43.2469H45.1619V45.7827H43.8164V39.8054H45.1619V42.0911H47.4218V39.8054Z" fill="black"/>
<path d="M51.3495 45.7827H50.0643V41.2458H51.3495V45.7827ZM51.4702 39.9348C51.4702 40.1705 51.3926 40.3574 51.2373 40.4954C51.0878 40.6277 50.9096 40.6938 50.7026 40.6938C50.4956 40.6938 50.3144 40.6277 50.1592 40.4954C50.0097 40.3574 49.9349 40.1705 49.9349 39.9348C49.9349 39.699 50.0097 39.515 50.1592 39.3828C50.3144 39.2447 50.4956 39.1757 50.7026 39.1757C50.9096 39.1757 51.0878 39.2447 51.2373 39.3828C51.3926 39.515 51.4702 39.699 51.4702 39.9348Z" fill="black"/>
<path d="M53.653 43.4797C53.653 43.8765 53.7421 44.1956 53.9203 44.4371C54.0986 44.6786 54.3631 44.7994 54.7139 44.7994C54.8289 44.7994 54.9352 44.7965 55.033 44.7908C55.1307 44.7793 55.2112 44.7678 55.2745 44.7563V42.4188C55.194 42.3671 55.0876 42.324 54.9554 42.2895C54.8289 42.255 54.6995 42.2377 54.5672 42.2377C53.9577 42.2377 53.653 42.6517 53.653 43.4797ZM56.5597 45.6361C56.4447 45.6706 56.3124 45.7051 56.1629 45.7396C56.0134 45.7683 55.8553 45.7942 55.6885 45.8172C55.5275 45.8402 55.3608 45.8574 55.1882 45.8689C55.0215 45.8862 54.8605 45.8948 54.7052 45.8948C54.3315 45.8948 53.998 45.8402 53.7047 45.7309C53.4114 45.6217 53.1642 45.4664 52.9629 45.2652C52.7617 45.0582 52.6064 44.8109 52.4972 44.5234C52.3937 44.2301 52.3419 43.9024 52.3419 43.5401C52.3419 43.1721 52.3879 42.8415 52.4799 42.5482C52.5719 42.2492 52.7042 41.9962 52.8767 41.7892C53.0492 41.5822 53.2591 41.4241 53.5063 41.3148C53.7593 41.2056 54.0468 41.1509 54.3688 41.1509C54.5471 41.1509 54.7052 41.1682 54.8432 41.2027C54.987 41.2372 55.1307 41.2861 55.2745 41.3493V39.2965L56.5597 39.0895V45.6361Z" fill="black"/>
<path d="M60.4972 42.3843C60.3822 42.3556 60.2471 42.3268 60.0918 42.2981C59.9366 42.2636 59.7698 42.2463 59.5916 42.2463C59.5111 42.2463 59.4133 42.255 59.2983 42.2722C59.1891 42.2837 59.1057 42.2981 59.0482 42.3153V45.7827H57.763V41.4873C57.993 41.4068 58.2633 41.3321 58.5738 41.2631C58.89 41.1883 59.2408 41.1509 59.6261 41.1509C59.6951 41.1509 59.7784 41.1567 59.8762 41.1682C59.974 41.1739 60.0717 41.1854 60.1695 41.2027C60.2672 41.2142 60.365 41.2314 60.4627 41.2544C60.5605 41.2717 60.6438 41.2947 60.7129 41.3234L60.4972 42.3843Z" fill="black"/>
<path d="M63.0512 44.8857C63.1777 44.8857 63.2985 44.8828 63.4135 44.877C63.5285 44.8713 63.6205 44.8627 63.6895 44.8512V43.8765C63.6377 43.865 63.5601 43.8535 63.4566 43.842C63.3531 43.8305 63.2582 43.8248 63.172 43.8248C63.0512 43.8248 62.9362 43.8334 62.827 43.8506C62.7235 43.8621 62.6315 43.888 62.551 43.9283C62.4705 43.9685 62.4072 44.0231 62.3612 44.0921C62.3152 44.1611 62.2922 44.2474 62.2922 44.3509C62.2922 44.5521 62.3583 44.693 62.4906 44.7735C62.6286 44.8483 62.8155 44.8857 63.0512 44.8857ZM62.9477 41.1251C63.3272 41.1251 63.6435 41.1682 63.8965 41.2544C64.1495 41.3407 64.3508 41.4643 64.5003 41.6253C64.6555 41.7863 64.7648 41.9818 64.828 42.2118C64.8913 42.4418 64.9229 42.6977 64.9229 42.9795V45.6533C64.7389 45.6936 64.483 45.7396 64.1553 45.7913C63.8275 45.8488 63.4307 45.8776 62.965 45.8776C62.6717 45.8776 62.4043 45.8517 62.1628 45.7999C61.9271 45.7482 61.7229 45.6648 61.5504 45.5498C61.3779 45.429 61.2457 45.2738 61.1537 45.084C61.0617 44.8943 61.0157 44.6614 61.0157 44.3854C61.0157 44.1209 61.0674 43.8966 61.1709 43.7126C61.2802 43.5286 61.4239 43.382 61.6022 43.2727C61.7804 43.1635 61.9846 43.0859 62.2146 43.0399C62.4446 42.9881 62.6832 42.9622 62.9305 42.9622C63.0972 42.9622 63.2439 42.9709 63.3704 42.9881C63.5026 42.9996 63.609 43.0169 63.6895 43.0399V42.9191C63.6895 42.7006 63.6234 42.5252 63.4911 42.393C63.3589 42.2607 63.1289 42.1946 62.8011 42.1946C62.5826 42.1946 62.367 42.2118 62.1542 42.2463C61.9415 42.2751 61.7574 42.3182 61.6022 42.3757L61.4383 41.3407C61.5131 41.3177 61.6051 41.2947 61.7143 41.2717C61.8293 41.2429 61.953 41.2199 62.0852 41.2027C62.2175 41.1797 62.3555 41.1624 62.4992 41.1509C62.6487 41.1337 62.7982 41.1251 62.9477 41.1251ZM64.138 39.6156L62.7148 40.8145L62.1283 40.2884L63.3531 38.8911L64.138 39.6156Z" fill="black"/>
<path d="M69.9578 45.6274C69.7393 45.6907 69.4575 45.7482 69.1125 45.7999C68.7675 45.8574 68.4052 45.8862 68.0257 45.8862C67.6404 45.8862 67.3184 45.8344 67.0597 45.7309C66.8067 45.6274 66.6054 45.4837 66.4559 45.2997C66.3064 45.1099 66.2 44.8857 66.1368 44.6269C66.0735 44.3681 66.0419 44.0835 66.0419 43.773V41.2458H67.3271V43.6177C67.3271 44.0318 67.3817 44.3308 67.4909 44.5148C67.6002 44.6988 67.8043 44.7908 68.1033 44.7908C68.1953 44.7908 68.2931 44.7879 68.3966 44.7822C68.5001 44.7707 68.5921 44.7592 68.6726 44.7477V41.2458H69.9578V45.6274Z" fill="black"/>
<path d="M72.9755 45.8689C72.6017 45.8632 72.2969 45.8229 72.0612 45.7482C71.8312 45.6734 71.6472 45.5699 71.5092 45.4377C71.3769 45.2997 71.2849 45.1358 71.2332 44.946C71.1871 44.7505 71.1641 44.532 71.1641 44.2905V39.2965L72.4493 39.0895V44.0318C72.4493 44.1468 72.4579 44.2503 72.4752 44.3423C72.4924 44.4343 72.5241 44.5119 72.5701 44.5751C72.6218 44.6384 72.6937 44.6902 72.7857 44.7304C72.8777 44.7707 73.0013 44.7965 73.1566 44.808L72.9755 45.8689Z" fill="black"/>
<path d="M75.1784 45.7827H73.8932V41.2458H75.1784V45.7827ZM75.2991 39.9348C75.2991 40.1705 75.2215 40.3574 75.0663 40.4954C74.9168 40.6277 74.7385 40.6938 74.5315 40.6938C74.3245 40.6938 74.1434 40.6277 73.9881 40.4954C73.8386 40.3574 73.7638 40.1705 73.7638 39.9348C73.7638 39.699 73.8386 39.515 73.9881 39.3828C74.1434 39.2447 74.3245 39.1757 74.5315 39.1757C74.7385 39.1757 74.9168 39.2447 75.0663 39.3828C75.2215 39.515 75.2991 39.699 75.2991 39.9348Z" fill="black"/>
<path d="M76.1708 43.5142C76.1708 43.1865 76.2226 42.8788 76.3261 42.5913C76.4353 42.2981 76.5906 42.0451 76.7918 41.8323C76.9931 41.6138 77.2375 41.4413 77.525 41.3148C77.8125 41.1883 78.1403 41.1251 78.5083 41.1251C78.7498 41.1251 78.9712 41.1481 79.1724 41.1941C79.3737 41.2343 79.5692 41.2947 79.7589 41.3752L79.4916 42.4016C79.3708 42.3556 79.2385 42.3153 79.0948 42.2808C78.951 42.2463 78.79 42.2291 78.6118 42.2291C78.2323 42.2291 77.9476 42.347 77.7579 42.5827C77.5739 42.8185 77.4819 43.129 77.4819 43.5142C77.4819 43.9225 77.5681 44.2388 77.7406 44.463C77.9189 44.6873 78.2265 44.7994 78.6635 44.7994C78.8188 44.7994 78.9855 44.785 79.1638 44.7563C79.342 44.7275 79.5059 44.6815 79.6554 44.6183L79.8366 45.6706C79.6871 45.7338 79.5002 45.7884 79.2759 45.8344C79.0517 45.8804 78.8044 45.9034 78.5341 45.9034C78.1201 45.9034 77.7636 45.8431 77.4646 45.7223C77.1656 45.5958 76.9184 45.4262 76.7228 45.2134C76.5331 45.0007 76.3922 44.7505 76.3002 44.463C76.214 44.1698 76.1708 43.8535 76.1708 43.5142Z" fill="black"/>
<path d="M82.2138 44.8857C82.3403 44.8857 82.461 44.8828 82.576 44.877C82.691 44.8713 82.783 44.8627 82.852 44.8512V43.8765C82.8003 43.865 82.7226 43.8535 82.6191 43.842C82.5156 43.8305 82.4208 43.8248 82.3345 43.8248C82.2138 43.8248 82.0988 43.8334 81.9895 43.8506C81.886 43.8621 81.794 43.888 81.7135 43.9283C81.633 43.9685 81.5697 44.0231 81.5237 44.0921C81.4777 44.1611 81.4547 44.2474 81.4547 44.3509C81.4547 44.5521 81.5209 44.693 81.6531 44.7735C81.7911 44.8483 81.978 44.8857 82.2138 44.8857ZM82.1103 41.1251C82.4898 41.1251 82.806 41.1682 83.059 41.2544C83.312 41.3407 83.5133 41.4643 83.6628 41.6253C83.8181 41.7863 83.9273 41.9818 83.9906 42.2118C84.0538 42.4418 84.0854 42.6977 84.0854 42.9795V45.6533C83.9014 45.6936 83.6455 45.7396 83.3178 45.7913C82.99 45.8488 82.5933 45.8776 82.1275 45.8776C81.8342 45.8776 81.5669 45.8517 81.3254 45.7999C81.0896 45.7482 80.8855 45.6648 80.713 45.5498C80.5405 45.429 80.4082 45.2738 80.3162 45.084C80.2242 44.8943 80.1782 44.6614 80.1782 44.3854C80.1782 44.1209 80.23 43.8966 80.3335 43.7126C80.4427 43.5286 80.5865 43.382 80.7647 43.2727C80.943 43.1635 81.1471 43.0859 81.3771 43.0399C81.6071 42.9881 81.8457 42.9622 82.093 42.9622C82.2598 42.9622 82.4064 42.9709 82.5329 42.9881C82.6651 42.9996 82.7715 43.0169 82.852 43.0399V42.9191C82.852 42.7006 82.7859 42.5252 82.6536 42.393C82.5214 42.2607 82.2914 42.1946 81.9636 42.1946C81.7451 42.1946 81.5295 42.2118 81.3167 42.2463C81.104 42.2751 80.92 42.3182 80.7647 42.3757L80.6008 41.3407C80.6756 41.3177 80.7676 41.2947 80.8768 41.2717C80.9918 41.2429 81.1155 41.2199 81.2477 41.2027C81.38 41.1797 81.518 41.1624 81.6617 41.1509C81.8112 41.1337 81.9608 41.1251 82.1103 41.1251Z" fill="black"/>
<path d="M87.104 43.5487C87.104 43.1462 87.1644 42.7955 87.2851 42.4965C87.4116 42.1917 87.5755 41.9387 87.7768 41.7374C87.978 41.5362 88.208 41.3838 88.4668 41.2803C88.7313 41.1768 89.0016 41.1251 89.2776 41.1251C89.9216 41.1251 90.4305 41.3234 90.8042 41.7202C91.178 42.1112 91.3649 42.6891 91.3649 43.4539C91.3649 43.5286 91.362 43.612 91.3562 43.704C91.3505 43.7902 91.3447 43.8679 91.339 43.9369H88.4237C88.4524 44.2014 88.576 44.4113 88.7945 44.5665C89.0131 44.7218 89.3063 44.7994 89.6743 44.7994C89.9101 44.7994 90.1401 44.7793 90.3643 44.739C90.5943 44.693 90.7812 44.6384 90.925 44.5751L91.0975 45.6188C91.0285 45.6533 90.9365 45.6878 90.8215 45.7223C90.7065 45.7568 90.5771 45.7856 90.4333 45.8086C90.2953 45.8373 90.1458 45.8603 89.9848 45.8776C89.8238 45.8948 89.6628 45.9034 89.5018 45.9034C89.0936 45.9034 88.737 45.8431 88.4323 45.7223C88.1333 45.6016 87.8831 45.4377 87.6819 45.2307C87.4864 45.0179 87.3398 44.7678 87.242 44.4803C87.15 44.1928 87.104 43.8823 87.104 43.5487ZM90.1228 43.0571C90.1171 42.9479 90.097 42.8415 90.0625 42.738C90.0337 42.6345 89.9848 42.5425 89.9158 42.462C89.8526 42.3815 89.7692 42.3153 89.6657 42.2636C89.5679 42.2118 89.4443 42.186 89.2948 42.186C89.1511 42.186 89.0274 42.2118 88.9239 42.2636C88.8204 42.3096 88.7342 42.3728 88.6652 42.4533C88.5962 42.5338 88.5415 42.6287 88.5013 42.738C88.4668 42.8415 88.4409 42.9479 88.4237 43.0571H90.1228Z" fill="black"/>
<path d="M94.515 45.7827V39.8054H98.5516V40.9353H95.8605V42.1083H98.2497V43.2124H95.8605V44.6528H98.75V45.7827H94.515Z" fill="black"/>
<path d="M101.471 45.8689C101.097 45.8632 100.792 45.8229 100.556 45.7482C100.326 45.6734 100.142 45.5699 100.004 45.4377C99.8722 45.2997 99.7802 45.1358 99.7285 44.946C99.6824 44.7505 99.6595 44.532 99.6595 44.2905V39.2965L100.945 39.0895V44.0318C100.945 44.1468 100.953 44.2503 100.97 44.3423C100.988 44.4343 101.019 44.5119 101.065 44.5751C101.117 44.6384 101.189 44.6902 101.281 44.7304C101.373 44.7707 101.497 44.7965 101.652 44.808L101.471 45.8689Z" fill="black"/>
<path d="M102.173 43.5487C102.173 43.1462 102.233 42.7955 102.354 42.4965C102.481 42.1917 102.644 41.9387 102.846 41.7374C103.047 41.5362 103.277 41.3838 103.536 41.2803C103.8 41.1768 104.07 41.1251 104.346 41.1251C104.99 41.1251 105.499 41.3234 105.873 41.7202C106.247 42.1112 106.434 42.6891 106.434 43.4539C106.434 43.5286 106.431 43.612 106.425 43.704C106.419 43.7902 106.414 43.8679 106.408 43.9369H103.493C103.521 44.2014 103.645 44.4113 103.863 44.5665C104.082 44.7218 104.375 44.7994 104.743 44.7994C104.979 44.7994 105.209 44.7793 105.433 44.739C105.663 44.693 105.85 44.6384 105.994 44.5751L106.166 45.6188C106.097 45.6533 106.005 45.6878 105.89 45.7223C105.775 45.7568 105.646 45.7856 105.502 45.8086C105.364 45.8373 105.215 45.8603 105.054 45.8776C104.893 45.8948 104.732 45.9034 104.571 45.9034C104.162 45.9034 103.806 45.8431 103.501 45.7223C103.202 45.6016 102.952 45.4377 102.751 45.2307C102.555 45.0179 102.409 44.7678 102.311 44.4803C102.219 44.1928 102.173 43.8823 102.173 43.5487ZM105.192 43.0571C105.186 42.9479 105.166 42.8415 105.131 42.738C105.103 42.6345 105.054 42.5425 104.985 42.462C104.921 42.3815 104.838 42.3153 104.735 42.2636C104.637 42.2118 104.513 42.186 104.364 42.186C104.22 42.186 104.096 42.2118 103.993 42.2636C103.889 42.3096 103.803 42.3728 103.734 42.4533C103.665 42.5338 103.61 42.6287 103.57 42.738C103.536 42.8415 103.51 42.9479 103.493 43.0571H105.192ZM105.39 39.6156L103.967 40.8145L103.38 40.2884L104.605 38.8911L105.39 39.6156Z" fill="black"/>
<path d="M107.382 40.1159L108.668 39.9089V41.2458H110.211V42.3153H108.668V43.911C108.668 44.1813 108.714 44.3969 108.806 44.5579C108.903 44.7189 109.096 44.7994 109.383 44.7994C109.521 44.7994 109.662 44.7879 109.806 44.7649C109.956 44.7362 110.091 44.6988 110.211 44.6528L110.393 45.6533C110.237 45.7166 110.065 45.7712 109.875 45.8172C109.685 45.8632 109.452 45.8862 109.176 45.8862C108.826 45.8862 108.535 45.8402 108.305 45.7482C108.075 45.6504 107.891 45.5182 107.753 45.3514C107.615 45.1789 107.518 44.9719 107.46 44.7304C107.408 44.4889 107.382 44.2215 107.382 43.9283V40.1159Z" fill="black"/>
<path d="M113.992 42.3843C113.877 42.3556 113.742 42.3268 113.587 42.2981C113.432 42.2636 113.265 42.2463 113.087 42.2463C113.006 42.2463 112.908 42.255 112.793 42.2722C112.684 42.2837 112.601 42.2981 112.543 42.3153V45.7827H111.258V41.4873C111.488 41.4068 111.758 41.3321 112.069 41.2631C112.385 41.1883 112.736 41.1509 113.121 41.1509C113.19 41.1509 113.273 41.1567 113.371 41.1682C113.469 41.1739 113.567 41.1854 113.664 41.2027C113.762 41.2142 113.86 41.2314 113.958 41.2544C114.055 41.2717 114.139 41.2947 114.208 41.3234L113.992 42.3843Z" fill="black"/>
<path d="M116.182 45.7827H114.897V41.2458H116.182V45.7827ZM116.303 39.9348C116.303 40.1705 116.225 40.3574 116.07 40.4954C115.92 40.6277 115.742 40.6938 115.535 40.6938C115.328 40.6938 115.147 40.6277 114.992 40.4954C114.842 40.3574 114.767 40.1705 114.767 39.9348C114.767 39.699 114.842 39.515 114.992 39.3828C115.147 39.2447 115.328 39.1757 115.535 39.1757C115.742 39.1757 115.92 39.2447 116.07 39.3828C116.225 39.515 116.303 39.699 116.303 39.9348Z" fill="black"/>
<path d="M117.174 43.5142C117.174 43.1865 117.226 42.8788 117.33 42.5913C117.439 42.2981 117.594 42.0451 117.795 41.8323C117.997 41.6138 118.241 41.4413 118.529 41.3148C118.816 41.1883 119.144 41.1251 119.512 41.1251C119.753 41.1251 119.975 41.1481 120.176 41.1941C120.377 41.2343 120.573 41.2947 120.763 41.3752L120.495 42.4016C120.374 42.3556 120.242 42.3153 120.098 42.2808C119.955 42.2463 119.794 42.2291 119.615 42.2291C119.236 42.2291 118.951 42.347 118.761 42.5827C118.577 42.8185 118.485 43.129 118.485 43.5142C118.485 43.9225 118.572 44.2388 118.744 44.463C118.922 44.6873 119.23 44.7994 119.667 44.7994C119.822 44.7994 119.989 44.785 120.167 44.7563C120.346 44.7275 120.51 44.6815 120.659 44.6183L120.84 45.6706C120.691 45.7338 120.504 45.7884 120.28 45.8344C120.055 45.8804 119.808 45.9034 119.538 45.9034C119.124 45.9034 118.767 45.8431 118.468 45.7223C118.169 45.5958 117.922 45.4262 117.726 45.2134C117.537 45.0007 117.396 44.7505 117.304 44.463C117.218 44.1698 117.174 43.8535 117.174 43.5142Z" fill="black"/>
<path d="M123.217 44.8857C123.344 44.8857 123.465 44.8828 123.58 44.877C123.695 44.8713 123.787 44.8627 123.856 44.8512V43.8765C123.804 43.865 123.726 43.8535 123.623 43.842C123.519 43.8305 123.424 43.8248 123.338 43.8248C123.217 43.8248 123.102 43.8334 122.993 43.8506C122.89 43.8621 122.798 43.888 122.717 43.9283C122.637 43.9685 122.573 44.0231 122.527 44.0921C122.481 44.1611 122.458 44.2474 122.458 44.3509C122.458 44.5521 122.524 44.693 122.657 44.7735C122.795 44.8483 122.982 44.8857 123.217 44.8857ZM123.114 41.1251C123.493 41.1251 123.81 41.1682 124.063 41.2544C124.316 41.3407 124.517 41.4643 124.666 41.6253C124.822 41.7863 124.931 41.9818 124.994 42.2118C125.057 42.4418 125.089 42.6977 125.089 42.9795V45.6533C124.905 45.6936 124.649 45.7396 124.321 45.7913C123.994 45.8488 123.597 45.8776 123.131 45.8776C122.838 45.8776 122.57 45.8517 122.329 45.7999C122.093 45.7482 121.889 45.6648 121.717 45.5498C121.544 45.429 121.412 45.2738 121.32 45.084C121.228 44.8943 121.182 44.6614 121.182 44.3854C121.182 44.1209 121.234 43.8966 121.337 43.7126C121.446 43.5286 121.59 43.382 121.768 43.2727C121.947 43.1635 122.151 43.0859 122.381 43.0399C122.611 42.9881 122.849 42.9622 123.097 42.9622C123.263 42.9622 123.41 42.9709 123.536 42.9881C123.669 42.9996 123.775 43.0169 123.856 43.0399V42.9191C123.856 42.7006 123.789 42.5252 123.657 42.393C123.525 42.2607 123.295 42.1946 122.967 42.1946C122.749 42.1946 122.533 42.2118 122.32 42.2463C122.108 42.2751 121.924 42.3182 121.768 42.3757L121.604 41.3407C121.679 41.3177 121.771 41.2947 121.88 41.2717C121.995 41.2429 122.119 41.2199 122.251 41.2027C122.384 41.1797 122.522 41.1624 122.665 41.1509C122.815 41.1337 122.964 41.1251 123.114 41.1251Z" fill="black"/>
<path d="M28.2457 8.00422H18.8615V32.8449H9.8912V8.00422H0.460938V0.184006H28.2457V8.00422Z" fill="#FFB130"/>
<path d="M45.7733 33.1209C43.1665 33.1209 40.9278 32.6916 39.0571 31.8329C37.1864 30.9742 35.653 29.7935 34.457 28.2908C33.2916 26.7881 32.4329 25.0707 31.8809 23.1386C31.3289 21.1759 31.0529 19.1212 31.0529 16.9745V0.184006H40.0231V16.9745C40.0231 18.4158 40.2071 19.7652 40.5751 21.0226C40.9738 22.2493 41.5872 23.246 42.4152 24.0127C43.2739 24.7794 44.3932 25.1627 45.7733 25.1627C47.184 25.1627 48.3034 24.7794 49.1314 24.0127C49.9901 23.2153 50.6034 22.2033 50.9714 20.9766C51.3701 19.7192 51.5694 18.3852 51.5694 16.9745V0.184006H60.5397V16.9745C60.5397 20.0106 60.003 22.7553 58.9297 25.2087C57.887 27.6314 56.2769 29.5635 54.0995 31.0049C51.9221 32.4156 49.1467 33.1209 45.7733 33.1209Z" fill="#FFB130"/>
<path d="M65.6994 32.8449V0.184006H78.2577C81.8765 0.184006 84.8973 0.920026 87.32 2.39207C89.7734 3.83344 91.6134 5.79616 92.8401 8.28023C94.0975 10.7336 94.7262 13.463 94.7262 16.4685C94.7262 19.7806 94.0362 22.6633 92.6561 25.1167C91.3068 27.5701 89.3901 29.4715 86.906 30.8209C84.4526 32.1702 81.5698 32.8449 78.2577 32.8449H65.6994ZM85.6179 16.4685C85.6179 13.9231 84.9586 11.8837 83.6399 10.3503C82.3519 8.78625 80.5578 8.00422 78.2577 8.00422H74.6696V25.0247H78.2577C80.6191 25.0247 82.4285 24.212 83.6859 22.5866C84.9739 20.9613 85.6179 18.9219 85.6179 16.4685Z" fill="#FFB130"/>
<path d="M113.348 33.1209C110.864 33.1209 108.61 32.6609 106.586 31.7409C104.562 30.7902 102.814 29.5328 101.342 27.9688C99.9007 26.3741 98.7814 24.5954 97.984 22.6326C97.2173 20.6392 96.834 18.5845 96.834 16.4685C96.834 14.2911 97.248 12.221 98.076 10.2583C98.9041 8.29557 100.054 6.54752 101.526 5.01414C103.029 3.4501 104.792 2.2234 106.816 1.33404C108.871 0.444679 111.11 0 113.532 0C116.017 0 118.271 0.475347 120.295 1.42604C122.319 2.34607 124.051 3.60343 125.493 5.19815C126.934 6.79286 128.038 8.58691 128.805 10.5803C129.602 12.543 130.001 14.5671 130.001 16.6525C130.001 18.7992 129.587 20.8539 128.759 22.8166C127.962 24.7794 126.812 26.5427 125.309 28.1068C123.837 29.6402 122.089 30.8669 120.065 31.7869C118.041 32.6763 115.802 33.1209 113.348 33.1209ZM105.942 16.5605C105.942 18.0018 106.203 19.3819 106.724 20.7006C107.276 22.0193 108.104 23.0926 109.208 23.9207C110.343 24.7487 111.754 25.1627 113.44 25.1627C115.188 25.1627 116.599 24.7334 117.673 23.8747C118.777 23.016 119.589 21.9273 120.111 20.6086C120.632 19.2592 120.893 17.8792 120.893 16.4685C120.893 14.9964 120.617 13.6164 120.065 12.3283C119.513 11.0403 118.685 9.99761 117.581 9.20026C116.477 8.37224 115.081 7.95822 113.394 7.95822C111.677 7.95822 110.266 8.38757 109.162 9.24626C108.058 10.0743 107.246 11.1476 106.724 12.4663C106.203 13.7544 105.942 15.1191 105.942 16.5605Z" fill="#FFB130"/>
<rect width="6.46893" height="2.87508" transform="matrix(1 0 0 -1 7.1875 44.3452)" fill="#FC9530"/>
<rect width="8.62524" height="2.87508" transform="matrix(1 0 0 -1 13.6562 44.3452)" fill="#414241"/>
<rect width="17.9693" height="2.87508" transform="matrix(1 0 0 -1 22.2812 44.3452)" fill="#FFB130"/>
</g>
<defs>
<clipPath id="clip0">
<rect width="130" height="46" fill="white"/>
</clipPath>
</defs>
</svg>
