<svg width="100" height="100" viewBox="0 0 100 100" fill="none" xmlns="http://www.w3.org/2000/svg">
<path d="M96.0938 56.9336C98.2512 56.9336 100 55.1848 100 53.0273V27.4414C100 18.8258 92.9906 11.8164 84.375 11.8164H15.625C7.00938 11.8164 0 18.8258 0 27.4414V72.5586C0 81.1742 7.00938 88.1836 15.625 88.1836H84.375C92.9906 88.1836 100 81.1742 100 72.5586C100 70.4012 98.2512 68.6523 96.0938 68.6523C93.9363 68.6523 92.1875 70.4012 92.1875 72.5586C92.1875 76.8664 88.6828 80.3711 84.375 80.3711H15.625C11.3172 80.3711 7.8125 76.8664 7.8125 72.5586V28.2691L41.749 49.3717C44.2938 50.9539 47.1469 51.7451 50 51.7451C52.8531 51.7451 55.7062 50.9539 58.251 49.3717L92.1875 28.2691V53.0273C92.1875 55.1848 93.9363 56.9336 96.0938 56.9336ZM54.1254 42.7371C51.5809 44.3193 48.4191 44.3195 45.8746 42.7371L11.0721 21.0961C12.3549 20.173 13.9275 19.6289 15.625 19.6289H84.375C86.0725 19.6289 87.6451 20.1732 88.9279 21.0963L54.1254 42.7371Z" fill="#FFB130"/>
</svg>
