<svg width="100" height="100" viewBox="0 0 100 100" fill="none" xmlns="http://www.w3.org/2000/svg">
<g clip-path="url(#clip0)">
<path d="M49.9992 99.5995H49.9794C42.1776 99.5964 34.4421 97.7547 27.5101 94.2604L6.14166 99.1211C4.8378 99.4171 3.47214 99.0257 2.52304 98.0835C1.57394 97.1413 1.1734 95.7787 1.46027 94.4725L6.09055 73.4261C2.11258 66.0797 0.012207 58.0338 0.000762939 50.0557C0 50.0282 0 50.0008 0 49.9741C0.00534059 36.7531 5.23376 24.3019 14.7209 14.9147C24.1867 5.54886 36.7149 0.390625 49.9985 0.390625C63.3118 0.395966 75.8202 5.55878 85.2234 14.9269C94.7571 24.4255 100.005 36.8866 100 50.0137C99.9962 59.9342 97.0215 69.5221 91.3979 77.7397C90.1794 79.5204 87.7487 79.9759 85.968 78.7575C84.1881 77.5391 83.7318 75.1083 84.9503 73.3276C89.6812 66.4139 92.1837 58.3511 92.1875 50.0107C92.1913 38.9763 87.7602 28.4821 79.7096 20.4613C71.7804 12.561 61.2282 8.2077 49.9969 8.20312C26.7708 8.20312 7.86133 26.9028 7.8125 49.9039C7.8125 49.929 7.81326 49.9535 7.81326 49.9779C7.81021 57.0976 9.81293 64.3166 13.604 70.8542C14.0945 71.7003 14.2502 72.699 14.0396 73.6534L10.4134 90.1367L27.179 86.3228C28.1044 86.113 29.0749 86.2465 29.9095 86.6989C36.0352 90.0246 42.9756 91.7839 49.9809 91.787H49.9985C57.6164 91.787 65.0978 89.727 71.6331 85.8307C73.4856 84.7252 75.8835 85.3317 76.9882 87.1849C78.093 89.0381 77.4872 91.4352 75.634 92.5407C67.8894 97.1581 59.0248 99.5995 49.9985 99.5995H49.9992ZM38.9671 30.1208C38.1104 28.2227 37.2086 28.1578 36.3937 28.125H34.2018C33.4389 28.125 32.1999 28.4103 31.1523 29.5509C30.1041 30.6915 27.1492 33.4488 27.1492 39.0572C27.1492 44.6655 31.2477 50.0854 31.8192 50.8469C32.3914 51.6068 39.7316 63.4834 51.3557 68.0527C61.0168 71.8498 62.9829 71.0945 65.0795 70.9038C67.1768 70.7146 71.8468 68.1473 72.7989 65.4854C73.7526 62.8242 73.7526 60.5431 73.4665 60.0662C73.1812 59.5917 72.4182 59.3063 71.2746 58.7364C70.1302 58.1665 64.5248 55.3612 63.4766 54.9812C62.4283 54.6013 61.6661 54.4113 60.9032 55.5527C60.1402 56.6925 57.8941 59.3285 57.2266 60.0883C56.5598 60.8505 55.8922 60.9451 54.7485 60.3752C53.6049 59.803 49.9588 58.5785 45.5894 54.6959C42.189 51.6739 39.83 47.821 39.1624 46.6797C38.4949 45.5399 39.0907 44.9219 39.6645 44.3535C40.1779 43.8431 40.873 43.145 41.4452 42.4797C42.0158 41.8144 42.1791 41.3391 42.5598 40.5785C42.9413 39.8178 42.7505 39.1525 42.4652 38.5818C42.1791 38.0119 39.9834 32.3746 38.9664 30.1208" fill="#FFB130"/>
</g>
<defs>
<clipPath id="clip0">
<rect width="100" height="100" fill="white"/>
</clipPath>
</defs>
</svg>
